<?xml version="1.0" encoding="UTF-8"?>
<svg id="Layer_1" data-name="Layer 1" xmlns="http://www.w3.org/2000/svg" viewBox="0 0 1000 1000">
  <defs>
    <style>
      .cls-1 {
        fill: #fff;
      }

      .cls-2 {
        fill: #00b498;
      }
    </style>
  </defs>
  <path d="M789.14,397.66c5.82-6.61,12.76-13.07,19.83-18.28,36.16-26.65,83.55-29.23,126.66-26.58,2.43,40.12.78,84.66-22,119.44-8.88,13.55-21.51,26.37-34.95,35.41-34.6,23.27-80.73,25.83-120.98,22.69-2.37-45.14-.15-96.83,31.44-132.68ZM878.54,421.57c11.39,17.84,6.54,41.73-11.75,53-22.23,13.68-52.32-.58-56.41-26.38-3.54-22.31,13.56-43.13,36.42-43.24,1.98,0,5.55.95,7.02.81s3.12-3.98,3.79-5.39c.85-1.79,4.23-11.31,2.7-12.6-33.4-9.21-67.59,16.08-69.46,50.7-3.1,57.43,71.84,83.41,103.93,34.58,15.8-24.04,9.8-57.23-12.74-74.97l8.38-8.38c12.66,11.2,22.02,26.23,24.18,43.09l.53-.27c5.07-21.32,6.84-43.26,6.52-65.12l-.55-.82c-17.08-.19-34.24.38-51.08,3.52,6.03,17.18,2.25,37.35-11.62,49.74-14.51-6.8-31.64.84-35.48,16.73-4,16.53,10.05,32.08,26.84,30.54,17.74-1.62,27.61-20.97,19.59-36.35l9.19-9.19ZM779.12,446.97c-.59.03-2.59,9.2-2.85,10.4-4.16,19.43-5.41,39.62-5.11,59.43,22.23,1.21,44.54-1.42,66.18-6.48.44-.22.48-.61,0-.8-.88-.35-4.27-.56-5.68-.92-29.46-7.47-49.47-31.64-52.55-61.63Z"/>
  <rect x="-13.61" y="-10.1" width="1027.22" height="1020.19"/>
  <g>
    <g>
      <path class="cls-2" d="M327.15,581.17h-39.34v-52.56h39.34v9.61h-29.51v12.09h28.46v9.24h-28.46v11.86h29.51v9.76Z"/>
      <path class="cls-2" d="M372.57,528.68v52.48h-8.56l-.6-5.11c-2.85,4.43-7.43,5.93-11.94,5.93-10.89,0-19.07-7.21-19.07-19.37,0-12.76,8.03-19.37,18.85-19.37,3.9,0,9.99,2.1,12.16,5.93v-20.5h9.16ZM341.56,562.62c0,6.46,4.66,10.89,10.51,10.89s10.74-4.2,10.74-10.89-4.96-10.81-10.74-10.81-10.51,4.13-10.51,10.81Z"/>
      <path class="cls-2" d="M389.09,544.15v19.37c0,5.63,3.08,9.91,8.93,9.91s9.46-4.73,9.46-10.36v-18.92h9.08v37.09h-8.18l-.6-5.03c-3.83,3.75-7.36,5.56-12.54,5.56-8.86,0-15.32-6.68-15.32-18.17v-19.45h9.16Z"/>
      <path class="cls-2" d="M471.69,574.56c-5.41,5.33-12.39,7.81-19.97,7.81-19.52,0-27.78-13.44-27.86-27.1-.08-13.74,8.86-27.71,27.86-27.71,7.13,0,13.89,2.7,19.3,8.03l-6.61,6.38c-3.45-3.38-8.11-4.96-12.69-4.96-12.69,0-18.17,9.46-18.1,18.25.08,8.71,5.11,17.79,18.1,17.79,4.58,0,9.76-1.88,13.21-5.33l6.76,6.83Z"/>
      <path class="cls-2" d="M504.35,544.15h8.78v37.02h-8.63l-.45-5.41c-2.1,4.35-7.88,6.46-12.01,6.53-10.96.07-19.07-6.68-19.07-19.67s8.48-19.45,19.3-19.37c4.96,0,9.69,2.33,11.79,6.01l.3-5.11ZM482.12,562.62c0,7.06,4.88,11.26,10.96,11.26,14.42,0,14.42-22.45,0-22.45-6.08,0-10.96,4.13-10.96,11.19Z"/>
      <path class="cls-2" d="M520.86,596.64v-52.48h8.56l.6,5.11c2.85-4.13,7.81-5.93,12.01-5.93,11.41,0,19,8.48,19,19.37s-6.83,19.37-18.7,19.37c-3.9,0-9.69-1.2-12.31-5.26v19.82h-9.16ZM551.87,562.7c0-5.78-3.9-10.51-10.51-10.51s-10.51,4.73-10.51,10.51,4.28,10.51,10.51,10.51,10.51-4.73,10.51-10.51Z"/>
      <path class="cls-2" d="M580.71,533.72v10.51h10.21v7.88h-10.29v15.99c0,3.53,1.95,5.26,4.81,5.26,1.43,0,3.08-.45,4.43-1.13l2.55,7.81c-2.63,1.05-4.81,1.5-7.58,1.58-8.03.3-13.29-4.28-13.29-13.52v-15.99h-6.91v-7.88h6.91v-9.54l9.16-.98Z"/>
      <path class="cls-2" d="M607.14,544.15v19.37c0,5.63,3.08,9.91,8.93,9.91s9.46-4.73,9.46-10.36v-18.92h9.08v37.09h-8.18l-.6-5.03c-3.83,3.75-7.36,5.56-12.54,5.56-8.86,0-15.32-6.68-15.32-18.17v-19.45h9.16Z"/>
      <path class="cls-2" d="M651.21,544.15l.68,4.28c2.85-4.58,6.68-5.26,10.44-5.26s7.51,1.5,9.54,3.53l-4.13,7.96c-1.88-1.58-3.6-2.4-6.61-2.4-4.81,0-9.24,2.55-9.24,9.39v19.52h-9.16v-37.02h8.48Z"/>
      <path class="cls-2" d="M683.12,565.93c.6,4.58,4.58,7.88,11.04,7.88,3.38,0,7.81-1.28,9.91-3.45l5.86,5.78c-3.9,4.05-10.29,6.01-15.92,6.01-12.76,0-20.35-7.88-20.35-19.75s7.66-19.37,19.67-19.37,20.12,7.66,18.7,22.9h-28.91ZM703.24,558.34c-.6-4.81-4.35-7.21-9.61-7.21-4.96,0-9.01,2.4-10.36,7.21h19.97Z"/>
    </g>
    <path class="cls-1" d="M493.11,403.55c6.28-.4,13.06-.16,19.27.78,31.75,4.81,57.02,27.46,77.47,50.59-19.05,21.51-42.41,43.2-71.5,49.26-11.34,2.36-24.21,2.46-35.57.23-29.26-5.72-53.87-27.76-72.64-49.69,21.63-24.02,48.88-49.03,82.97-51.18ZM526.23,460.84c-3.26,14.78-17.79,24.4-32.73,20.85-18.16-4.32-26.16-26.74-15.18-41.86,9.49-13.07,28.66-14.95,40.27-3.45,1.01,1,2.33,3.28,3.14,3.96s3.59-.43,4.64-.81c1.34-.48,7.86-3.58,7.74-5.01-12.23-21.54-42.3-26.04-60.75-9.48-30.6,27.47-5.85,78.49,35.06,70.03,20.14-4.17,33.88-23.98,31.47-44.34h8.47c.74,12.07-2.12,24.39-9.56,34.01l.4.13c13.34-8.22,25.33-18.42,36.22-29.63l.14-.69c-8.54-8.73-17.5-17.12-27.6-24.04-5.64,11.73-17.74,20.02-31.02,19.27-3.9-10.77-16.42-15.57-26.4-9.48-10.38,6.33-11.14,21.3-1.87,29.01,9.79,8.15,24.56,3.36,28.28-8.48h9.29ZM463.12,423.41c-.31-.28-5.96,3.34-6.7,3.82-11.92,7.72-22.76,17.3-32.63,27.46,10.63,11.85,23.24,21.8,36.74,30.18.34.11.55-.07.4-.4-.27-.62-1.87-2.44-2.4-3.33-11.12-18.67-9.01-41.01,4.59-57.72Z"/>
  </g>
</svg>