<?xml version="1.0" encoding="UTF-8"?>
<svg id="Layer_1" data-name="Layer 1" xmlns="http://www.w3.org/2000/svg" xmlns:xlink="http://www.w3.org/1999/xlink" viewBox="0 0 1000 1000">
  <defs>
    <style>
      .cls-1 {
        fill: #fff;
      }

      .cls-2 {
        fill: none;
      }

      .cls-3 {
        fill: #1e413c;
      }

      .cls-4 {
        clip-path: url(#clippath-1);
      }

      .cls-5 {
        fill: #00b498;
      }

      .cls-6 {
        clip-path: url(#clippath-3);
      }

      .cls-7 {
        clip-path: url(#clippath-2);
      }
    </style>
    <clipPath id="clippath">
      <rect class="cls-2" x="-1093.35" y="-1052.14" width="1025.68" height="1002.49"/>
    </clipPath>
    <clipPath id="clippath-1">
      <rect class="cls-2" x="-12.84" y="-1052.14" width="1025.68" height="1002.49"/>
    </clipPath>
    <clipPath id="clippath-2">
      <rect class="cls-2" x="-12.84" y="-1.25" width="1025.68" height="1002.49"/>
    </clipPath>
    <clipPath id="clippath-3">
      <rect class="cls-2" x="-1093.35" y="-1.25" width="1025.68" height="1002.49"/>
    </clipPath>
  </defs>
  <g class="cls-4">
    <path class="cls-1" d="M51.06-59.79c5.82-6.61,12.76-13.07,19.83-18.28,36.16-26.65,83.55-29.23,126.66-26.58,2.43,40.12.78,84.66-22,119.44-8.88,13.55-21.51,26.37-34.95,35.41-34.6,23.27-80.73,25.83-120.98,22.69-2.37-45.14-.15-96.83,31.44-132.68ZM140.47-35.87c11.39,17.84,6.54,41.73-11.75,53-22.23,13.68-52.32-.58-56.41-26.38-3.54-22.31,13.56-43.13,36.42-43.24,1.98,0,5.55.95,7.02.81s3.12-3.98,3.79-5.39c.85-1.79,4.23-11.31,2.7-12.6-33.4-9.21-67.59,16.08-69.46,50.7-3.1,57.43,71.84,83.41,103.93,34.58,15.8-24.04,9.8-57.23-12.74-74.97l8.38-8.38c12.66,11.2,22.02,26.23,24.18,43.09l.53-.27c5.07-21.32,6.84-43.26,6.52-65.12l-.55-.82c-17.08-.19-34.24.38-51.08,3.52,6.03,17.18,2.25,37.35-11.62,49.74-14.51-6.8-31.64.84-35.48,16.73-4,16.53,10.05,32.08,26.84,30.54,17.74-1.62,27.61-20.97,19.59-36.35l9.19-9.19ZM41.04-10.47c-.59.03-2.59,9.2-2.85,10.4-4.16,19.43-5.41,39.62-5.11,59.43,22.23,1.21,44.54-1.42,66.18-6.48.44-.22.48-.61,0-.8-.88-.35-4.27-.56-5.68-.92-29.46-7.47-49.47-31.64-52.55-61.63Z"/>
    <path class="cls-1" d="M891.37-128.16c5.82-6.61,12.76-13.07,19.83-18.28,36.16-26.65,83.55-29.23,126.66-26.58,2.43,40.12.78,84.66-22,119.44-8.88,13.55-21.51,26.37-34.95,35.41-34.6,23.27-80.73,25.83-120.98,22.69-2.37-45.14-.15-96.83,31.44-132.68ZM980.77-104.25c11.39,17.84,6.54,41.73-11.75,53-22.23,13.68-52.32-.58-56.41-26.38-3.54-22.31,13.56-43.13,36.42-43.24,1.98,0,5.55.95,7.02.81,1.52-.14,3.12-3.98,3.79-5.39.85-1.79,4.23-11.31,2.7-12.6-33.4-9.21-67.59,16.08-69.46,50.7-3.1,57.43,71.84,83.41,103.93,34.58,15.8-24.04,9.8-57.23-12.74-74.97l8.38-8.38c12.66,11.2,22.02,26.23,24.18,43.09l.53-.27c5.07-21.32,6.84-43.26,6.52-65.12l-.55-.82c-17.08-.19-34.24.38-51.08,3.52,6.03,17.18,2.25,37.35-11.62,49.74-14.51-6.8-31.64.84-35.48,16.73-4,16.53,10.05,32.08,26.84,30.54,17.74-1.62,27.61-20.97,19.59-36.35l9.19-9.19ZM881.35-78.85c-.59.03-2.59,9.2-2.85,10.4-4.16,19.43-5.41,39.62-5.11,59.43,22.23,1.21,44.54-1.42,66.18-6.48.44-.22.48-.61,0-.8-.88-.35-4.27-.56-5.68-.92-29.46-7.47-49.47-31.64-52.55-61.63Z"/>
    <path class="cls-1" d="M497.52,9.25c5.82-6.61,12.76-13.07,19.83-18.28,36.16-26.65,83.55-29.23,126.66-26.58,2.43,40.12.78,84.66-22,119.44-8.88,13.55-21.51,26.37-34.95,35.41-34.6,23.27-80.73,25.83-120.98,22.69-2.37-45.14-.15-96.83,31.44-132.68ZM586.92,33.16c11.39,17.84,6.54,41.73-11.75,53-22.23,13.68-52.32-.58-56.41-26.38-3.54-22.31,13.56-43.13,36.42-43.24,1.98,0,5.55.95,7.02.81s3.12-3.98,3.79-5.39c.85-1.79,4.23-11.31,2.7-12.6-33.4-9.21-67.59,16.08-69.46,50.7-3.1,57.43,71.84,83.41,103.93,34.58,15.8-24.04,9.8-57.23-12.74-74.97l8.38-8.38c12.66,11.2,22.02,26.23,24.18,43.09l.53-.27c5.07-21.32,6.84-43.26,6.52-65.12l-.55-.82c-17.08-.19-34.24.38-51.08,3.52,6.03,17.18,2.25,37.35-11.62,49.74-14.51-6.8-31.64.84-35.48,16.73-4,16.53,10.05,32.08,26.84,30.54,17.74-1.62,27.61-20.97,19.59-36.35l9.19-9.19ZM487.5,58.56c-.59.03-2.59,9.2-2.85,10.4-4.16,19.43-5.41,39.62-5.11,59.43,22.23,1.21,44.54-1.42,66.18-6.48.44-.22.48-.61,0-.8-.88-.35-4.27-.56-5.68-.92-29.46-7.47-49.47-31.64-52.55-61.63Z"/>
    <path class="cls-1" d="M378.14,69.18c-5.82,6.61-12.76,13.07-19.83,18.28-36.16,26.65-83.55,29.23-126.66,26.58-2.43-40.12-.78-84.66,22-119.44,8.88-13.55,21.51-26.37,34.95-35.41,34.6-23.27,80.73-25.83,120.98-22.69,2.37,45.14.15,96.83-31.44,132.68ZM288.73,45.27c-11.39-17.84-6.54-41.73,11.75-53,22.23-13.68,52.32.58,56.41,26.38,3.54,22.31-13.56,43.13-36.42,43.24-1.98,0-5.55-.95-7.02-.81s-3.12,3.98-3.79,5.39c-.85,1.79-4.23,11.31-2.7,12.6,33.4,9.21,67.59-16.08,69.46-50.7,3.1-57.43-71.84-83.41-103.93-34.58-15.8,24.04-9.8,57.23,12.74,74.97l-8.38,8.38c-12.66-11.2-22.02-26.23-24.18-43.09l-.53.27c-5.07,21.32-6.84,43.26-6.52,65.12l.55.82c17.08.19,34.24-.38,51.08-3.52-6.03-17.18-2.25-37.35,11.62-49.74,14.51,6.8,31.64-.84,35.48-16.73,4-16.53-10.05-32.08-26.84-30.54-17.74,1.62-27.61,20.97-19.59,36.35l-9.19,9.19ZM388.16,19.87c.59-.03,2.59-9.2,2.85-10.4,4.16-19.43,5.41-39.62,5.11-59.43-22.23-1.21-44.54,1.42-66.18,6.48-.44.22-.48.61,0,.8.88.35,4.27.56,5.68.92,29.46,7.47,49.47,31.64,52.55,61.63Z"/>
  </g>
  <g>
    <rect class="cls-3" x="-13.61" y="-16.53" width="1027.22" height="1033.06"/>
    <g class="cls-7">
      <path class="cls-5" d="M-126.27,188.5c5.82-6.61,12.76-13.07,19.83-18.28,36.16-26.65,83.55-29.23,126.66-26.58,2.43,40.12.78,84.66-22,119.44-8.88,13.55-21.51,26.37-34.95,35.41-34.6,23.27-80.73,25.83-120.98,22.69-2.37-45.14-.15-96.83,31.44-132.68ZM-36.87,212.41c11.39,17.84,6.54,41.73-11.75,53-22.23,13.68-52.32-.58-56.41-26.38-3.54-22.31,13.56-43.13,36.42-43.24,1.98,0,5.55.95,7.02.81s3.12-3.98,3.79-5.39c.85-1.79,4.23-11.31,2.7-12.6-33.4-9.21-67.59,16.08-69.46,50.7-3.1,57.43,71.84,83.41,103.93,34.58,15.8-24.04,9.8-57.23-12.74-74.97l8.38-8.38c12.66,11.2,22.02,26.23,24.18,43.09l.53-.27c5.07-21.32,6.84-43.26,6.52-65.12l-.55-.82c-17.08-.19-34.24.38-51.08,3.52,6.03,17.18,2.25,37.35-11.62,49.74-14.51-6.8-31.64.84-35.48,16.73-4,16.53,10.05,32.08,26.84,30.54,17.74-1.62,27.61-20.97,19.59-36.35l9.19-9.19ZM-136.29,237.81c-.59.03-2.59,9.2-2.85,10.4-4.16,19.43-5.41,39.62-5.11,59.43,22.23,1.21,44.54-1.42,66.18-6.48.44-.22.48-.61,0-.8-.88-.35-4.27-.56-5.68-.92-29.46-7.47-49.47-31.64-52.55-61.63Z"/>
      <path class="cls-5" d="M51.06,991.11c5.82-6.61,12.76-13.07,19.83-18.28,36.16-26.65,83.55-29.23,126.66-26.58,2.43,40.12.78,84.66-22,119.44-8.88,13.55-21.51,26.37-34.95,35.41-34.6,23.27-80.73,25.83-120.98,22.69-2.37-45.14-.15-96.83,31.44-132.68ZM140.47,1015.02c11.39,17.84,6.54,41.73-11.75,53-22.23,13.68-52.32-.58-56.41-26.38-3.54-22.31,13.56-43.13,36.42-43.24,1.98,0,5.55.95,7.02.81s3.12-3.98,3.79-5.39c.85-1.79,4.23-11.31,2.7-12.6-33.4-9.21-67.59,16.08-69.46,50.7-3.1,57.43,71.84,83.41,103.93,34.58,15.8-24.04,9.8-57.23-12.74-74.97l8.38-8.38c12.66,11.2,22.02,26.23,24.18,43.09l.53-.27c5.07-21.32,6.84-43.26,6.52-65.12l-.55-.82c-17.08-.19-34.24.38-51.08,3.52,6.03,17.18,2.25,37.35-11.62,49.74-14.51-6.8-31.64.84-35.48,16.73-4,16.53,10.05,32.08,26.84,30.54,17.74-1.62,27.61-20.97,19.59-36.35l9.19-9.19ZM41.04,1040.42c-.59.03-2.59,9.2-2.85,10.4-4.16,19.43-5.41,39.62-5.11,59.43,22.23,1.21,44.54-1.42,66.18-6.48.44-.22.48-.61,0-.8-.88-.35-4.27-.56-5.68-.92-29.46-7.47-49.47-31.64-52.55-61.63Z"/>
      <path class="cls-5" d="M51.47,10.76c5.82-6.61,12.76-13.07,19.83-18.28,36.16-26.65,83.55-29.23,126.66-26.58,2.43,40.12.78,84.66-22,119.44-8.88,13.55-21.51,26.37-34.95,35.41-34.6,23.27-80.73,25.83-120.98,22.69-2.37-45.14-.15-96.83,31.44-132.68ZM140.87,34.67c11.39,17.84,6.54,41.73-11.75,53-22.23,13.68-52.32-.58-56.41-26.38-3.54-22.31,13.56-43.13,36.42-43.24,1.98,0,5.55.95,7.02.81s3.12-3.98,3.79-5.39c.85-1.79,4.23-11.31,2.7-12.6C89.25-8.35,55.05,16.94,53.18,51.56c-3.1,57.43,71.84,83.41,103.93,34.58,15.8-24.04,9.8-57.23-12.74-74.97l8.38-8.38c12.66,11.2,22.02,26.23,24.18,43.09l.53-.27c5.07-21.32,6.84-43.26,6.52-65.12l-.55-.82c-17.08-.19-34.24.38-51.08,3.52,6.03,17.18,2.25,37.35-11.62,49.74-14.51-6.8-31.64.84-35.48,16.73-4,16.53,10.05,32.08,26.84,30.54,17.74-1.62,27.61-20.97,19.59-36.35l9.19-9.19ZM41.45,60.07c-.59.03-2.59,9.2-2.85,10.4-4.16,19.43-5.41,39.62-5.11,59.43,22.23,1.21,44.54-1.42,66.18-6.48.44-.22.48-.61,0-.8-.88-.35-4.27-.56-5.68-.92-29.46-7.47-49.47-31.64-52.55-61.63Z"/>
      <path class="cls-5" d="M891.37,922.73c5.82-6.61,12.76-13.07,19.83-18.28,36.16-26.65,83.55-29.23,126.66-26.58,2.43,40.12.78,84.66-22,119.44-8.88,13.55-21.51,26.37-34.95,35.41-34.6,23.27-80.73,25.83-120.98,22.69-2.37-45.14-.15-96.83,31.44-132.68ZM980.77,946.64c11.39,17.84,6.54,41.73-11.75,53-22.23,13.68-52.32-.58-56.41-26.38-3.54-22.31,13.56-43.13,36.42-43.24,1.98,0,5.55.95,7.02.81,1.52-.14,3.12-3.98,3.79-5.39.85-1.79,4.23-11.31,2.7-12.6-33.4-9.21-67.59,16.08-69.46,50.7-3.1,57.43,71.84,83.41,103.93,34.58,15.8-24.04,9.8-57.23-12.74-74.97l8.38-8.38c12.66,11.2,22.02,26.23,24.18,43.09l.53-.27c5.07-21.32,6.84-43.26,6.52-65.12l-.55-.82c-17.08-.19-34.24.38-51.08,3.52,6.03,17.18,2.25,37.35-11.62,49.74-14.51-6.8-31.64.84-35.48,16.73-4,16.53,10.05,32.08,26.84,30.54,17.74-1.62,27.61-20.97,19.59-36.35l9.19-9.19ZM881.35,972.04c-.59.03-2.59,9.2-2.85,10.4-4.16,19.43-5.41,39.62-5.11,59.43,22.23,1.21,44.54-1.42,66.18-6.48.44-.22.48-.61,0-.8-.88-.35-4.27-.56-5.68-.92-29.46-7.47-49.47-31.64-52.55-61.63Z"/>
      <g>
        <path class="cls-5" d="M390.53,125.37c-5.82,6.61-12.76,13.07-19.83,18.28-36.16,26.65-83.55,29.23-126.66,26.58-2.43-40.12-.78-84.66,22-119.44,8.88-13.55,21.51-26.37,34.95-35.41,34.6-23.27,80.73-25.83,120.98-22.69,2.37,45.14.15,96.83-31.44,132.68ZM301.13,101.46c-11.39-17.84-6.54-41.73,11.75-53,22.23-13.68,52.32.58,56.41,26.38,3.54,22.31-13.56,43.13-36.42,43.24-1.98,0-5.55-.95-7.02-.81s-3.12,3.98-3.79,5.39c-.85,1.79-4.23,11.31-2.7,12.6,33.4,9.21,67.59-16.08,69.46-50.7,3.1-57.43-71.84-83.41-103.93-34.58-15.8,24.04-9.8,57.23,12.74,74.97l-8.38,8.38c-12.66-11.2-22.02-26.23-24.18-43.09l-.53.27c-5.07,21.32-6.84,43.26-6.52,65.12l.55.82c17.08.19,34.24-.38,51.08-3.52-6.03-17.18-2.25-37.35,11.62-49.74,14.51,6.8,31.64-.84,35.48-16.73,4-16.53-10.05-32.08-26.84-30.54-17.74,1.62-27.61,20.97-19.59,36.35l-9.19,9.19ZM400.55,76.06c.59-.03,2.59-9.2,2.85-10.4,4.16-19.43,5.41-39.62,5.11-59.43-22.23-1.21-44.54,1.42-66.18,6.48-.44.22-.48.61,0,.8.88.35,4.27.56,5.68.92,29.46,7.47,49.47,31.64,52.55,61.63Z"/>
        <path class="cls-5" d="M212.79,303.11c-5.82,6.61-12.76,13.07-19.83,18.28-36.16,26.65-83.55,29.23-126.66,26.58-2.43-40.12-.78-84.66,22-119.44,8.88-13.55,21.51-26.37,34.95-35.41,34.6-23.27,80.73-25.83,120.98-22.69,2.37,45.14.15,96.83-31.44,132.68ZM123.39,279.2c-11.39-17.84-6.54-41.73,11.75-53,22.23-13.68,52.32.58,56.41,26.38,3.54,22.31-13.56,43.13-36.42,43.24-1.98,0-5.55-.95-7.02-.81s-3.12,3.98-3.79,5.39c-.85,1.79-4.23,11.31-2.7,12.6,33.4,9.21,67.59-16.08,69.46-50.7,3.1-57.43-71.84-83.41-103.93-34.58-15.8,24.04-9.8,57.23,12.74,74.97l-8.38,8.38c-12.66-11.2-22.02-26.23-24.18-43.09l-.53.27c-5.07,21.32-6.84,43.26-6.52,65.12l.55.82c17.08.19,34.24-.38,51.08-3.52-6.03-17.18-2.25-37.35,11.62-49.74,14.51,6.8,31.64-.84,35.48-16.73,4-16.53-10.05-32.08-26.84-30.54-17.74,1.62-27.61,20.97-19.59,36.35l-9.19,9.19ZM222.81,253.8c.59-.03,2.59-9.2,2.85-10.4,4.16-19.43,5.41-39.62,5.11-59.43-22.23-1.21-44.54,1.42-66.18,6.48-.44.22-.48.61,0,.8.88.35,4.27.56,5.68.92,29.46,7.47,49.47,31.64,52.55,61.63Z"/>
        <path class="cls-5" d="M35.05,480.85c-5.82,6.61-12.76,13.07-19.83,18.28-36.16,26.65-83.55,29.23-126.66,26.58-2.43-40.12-.78-84.66,22-119.44,8.88-13.55,21.51-26.37,34.95-35.41,34.6-23.27,80.73-25.83,120.98-22.69,2.37,45.14.15,96.83-31.44,132.68ZM-54.35,456.93c-11.39-17.84-6.54-41.73,11.75-53,22.23-13.68,52.32.58,56.41,26.38,3.54,22.31-13.56,43.13-36.42,43.24-1.98,0-5.55-.95-7.02-.81s-3.12,3.98-3.79,5.39c-.85,1.79-4.23,11.31-2.7,12.6,33.4,9.21,67.59-16.08,69.46-50.7,3.1-57.43-71.84-83.41-103.93-34.58-15.8,24.04-9.8,57.23,12.74,74.97l-8.38,8.38c-12.66-11.2-22.02-26.23-24.18-43.09l-.53.27c-5.07,21.32-6.84,43.26-6.52,65.12l.55.82c17.08.19,34.24-.38,51.08-3.52-6.03-17.18-2.25-37.35,11.62-49.74,14.51,6.8,31.64-.84,35.48-16.73,4-16.53-10.05-32.08-26.84-30.54-17.74,1.62-27.61,20.97-19.59,36.35l-9.19,9.19ZM45.07,431.53c.59-.03,2.59-9.2,2.85-10.4,4.16-19.43,5.41-39.62,5.11-59.43-22.23-1.21-44.54,1.42-66.18,6.48-.44.22-.48.61,0,.8.88.35,4.27.56,5.68.92,29.46,7.47,49.47,31.64,52.55,61.63Z"/>
      </g>
      <g>
        <path class="cls-5" d="M-27.05,594.16c5.82-6.61,12.76-13.07,19.83-18.28,36.16-26.65,83.55-29.23,126.66-26.58,2.43,40.12.78,84.66-22,119.44-8.88,13.55-21.51,26.37-34.95,35.41-34.6,23.27-80.73,25.83-120.98,22.69-2.37-45.14-.15-96.83,31.44-132.68ZM62.36,618.07c11.39,17.84,6.54,41.73-11.75,53-22.23,13.68-52.32-.58-56.41-26.38-3.54-22.31,13.56-43.13,36.42-43.24,1.98,0,5.55.95,7.02.81s3.12-3.98,3.79-5.39c.85-1.79,4.23-11.31,2.7-12.6-33.4-9.21-67.59,16.08-69.46,50.7-3.1,57.43,71.84,83.41,103.93,34.58,15.8-24.04,9.8-57.23-12.74-74.97l8.38-8.38c12.66,11.2,22.02,26.23,24.18,43.09l.53-.27c5.07-21.32,6.84-43.26,6.52-65.12l-.55-.82c-17.08-.19-34.24.38-51.08,3.52,6.03,17.18,2.25,37.35-11.62,49.74-14.51-6.8-31.64.84-35.48,16.73-4,16.53,10.05,32.08,26.84,30.54,17.74-1.62,27.61-20.97,19.59-36.35l9.19-9.19ZM-37.07,643.47c-.59.03-2.59,9.2-2.85,10.4-4.16,19.43-5.41,39.62-5.11,59.43,22.23,1.21,44.54-1.42,66.18-6.48.44-.22.48-.61,0-.8-.88-.35-4.27-.56-5.68-.92-29.46-7.47-49.47-31.64-52.55-61.63Z"/>
        <path class="cls-5" d="M150.69,416.42c5.82-6.61,12.76-13.07,19.83-18.28,36.16-26.65,83.55-29.23,126.66-26.58,2.43,40.12.78,84.66-22,119.44-8.88,13.55-21.51,26.37-34.95,35.41-34.6,23.27-80.73,25.83-120.98,22.69-2.37-45.14-.15-96.83,31.44-132.68ZM240.1,440.33c11.39,17.84,6.54,41.73-11.75,53-22.23,13.68-52.32-.58-56.41-26.38-3.54-22.31,13.56-43.13,36.42-43.24,1.98,0,5.55.95,7.02.81s3.12-3.98,3.79-5.39c.85-1.79,4.23-11.31,2.7-12.6-33.4-9.21-67.59,16.08-69.46,50.7-3.1,57.43,71.84,83.41,103.93,34.58,15.8-24.04,9.8-57.23-12.74-74.97l8.38-8.38c12.66,11.2,22.02,26.23,24.18,43.09l.53-.27c5.07-21.32,6.84-43.26,6.52-65.12l-.55-.82c-17.08-.19-34.24.38-51.08,3.52,6.03,17.18,2.25,37.35-11.62,49.74-14.51-6.8-31.64.84-35.48,16.73-4,16.53,10.05,32.08,26.84,30.54,17.74-1.62,27.61-20.97,19.59-36.35l9.19-9.19ZM140.67,465.73c-.59.03-2.59,9.2-2.85,10.4-4.16,19.43-5.41,39.62-5.11,59.43,22.23,1.21,44.54-1.42,66.18-6.48.44-.22.48-.61,0-.8-.88-.35-4.27-.56-5.68-.92-29.46-7.47-49.47-31.64-52.55-61.63Z"/>
        <path class="cls-5" d="M328.43,238.68c5.82-6.61,12.76-13.07,19.83-18.28,36.16-26.65,83.55-29.23,126.66-26.58,2.43,40.12.78,84.66-22,119.44-8.88,13.55-21.51,26.37-34.95,35.41-34.6,23.27-80.73,25.83-120.98,22.69-2.37-45.14-.15-96.83,31.44-132.68ZM417.83,262.59c11.39,17.84,6.54,41.73-11.75,53-22.23,13.68-52.32-.58-56.41-26.38-3.54-22.31,13.56-43.13,36.42-43.24,1.98,0,5.55.95,7.02.81s3.12-3.98,3.79-5.39c.85-1.79,4.23-11.31,2.7-12.6-33.4-9.21-67.59,16.08-69.46,50.7-3.1,57.43,71.84,83.41,103.93,34.58,15.8-24.04,9.8-57.23-12.74-74.97l8.38-8.38c12.66,11.2,22.02,26.23,24.18,43.09l.53-.27c5.07-21.32,6.84-43.26,6.52-65.12l-.55-.82c-17.08-.19-34.24.38-51.08,3.52,6.03,17.18,2.25,37.35-11.62,49.74-14.51-6.8-31.64.84-35.48,16.73-4,16.53,10.05,32.08,26.84,30.54,17.74-1.62,27.61-20.97,19.59-36.35l9.19-9.19ZM318.41,287.99c-.59.03-2.59,9.2-2.85,10.4-4.16,19.43-5.41,39.62-5.11,59.43,22.23,1.21,44.54-1.42,66.18-6.48.44-.22.48-.61,0-.8-.88-.35-4.27-.56-5.68-.92-29.46-7.47-49.47-31.64-52.55-61.63Z"/>
        <path class="cls-5" d="M506.17,60.94c5.82-6.61,12.76-13.07,19.83-18.28,36.16-26.65,83.55-29.23,126.66-26.58,2.43,40.12.78,84.66-22,119.44-8.88,13.55-21.51,26.37-34.95,35.41-34.6,23.27-80.73,25.83-120.98,22.69-2.37-45.14-.15-96.83,31.44-132.68ZM595.57,84.85c11.39,17.84,6.54,41.73-11.75,53-22.23,13.68-52.32-.58-56.41-26.38-3.54-22.31,13.56-43.13,36.42-43.24,1.98,0,5.55.95,7.02.81s3.12-3.98,3.79-5.39c.85-1.79,4.23-11.31,2.7-12.6-33.4-9.21-67.59,16.08-69.46,50.7-3.1,57.43,71.84,83.41,103.93,34.58,15.8-24.04,9.8-57.23-12.74-74.97l8.38-8.38c12.66,11.2,22.02,26.23,24.18,43.09l.53-.27c5.07-21.32,6.84-43.26,6.52-65.12l-.55-.82c-17.08-.19-34.24.38-51.08,3.52,6.03,17.18,2.25,37.35-11.62,49.74-14.51-6.8-31.64.84-35.48,16.73-4,16.53,10.05,32.08,26.84,30.54,17.74-1.62,27.61-20.97,19.59-36.35l9.19-9.19ZM496.15,110.25c-.59.03-2.59,9.2-2.85,10.4-4.16,19.43-5.41,39.62-5.11,59.43,22.23,1.21,44.54-1.42,66.18-6.48.44-.22.48-.61,0-.8-.88-.35-4.27-.56-5.68-.92-29.46-7.47-49.47-31.64-52.55-61.63Z"/>
        <path class="cls-5" d="M685.63-118.5c5.82-6.61,12.76-13.07,19.83-18.28,36.16-26.65,83.55-29.23,126.66-26.58,2.43,40.12.78,84.66-22,119.44-8.88,13.55-21.51,26.37-34.95,35.41-34.6,23.27-80.73,25.83-120.98,22.69-2.37-45.14-.15-96.83,31.44-132.68ZM775.03-94.59c11.39,17.84,6.54,41.73-11.75,53-22.23,13.68-52.32-.58-56.41-26.38-3.54-22.31,13.56-43.13,36.42-43.24,1.98,0,5.55.95,7.02.81,1.52-.14,3.12-3.98,3.79-5.39.85-1.79,4.23-11.31,2.7-12.6-33.4-9.21-67.59,16.08-69.46,50.7-3.1,57.43,71.84,83.41,103.93,34.58,15.8-24.04,9.8-57.23-12.74-74.97l8.38-8.38c12.66,11.2,22.02,26.23,24.18,43.09l.53-.27c5.07-21.32,6.84-43.26,6.52-65.12l-.55-.82c-17.08-.19-34.24.38-51.08,3.52,6.03,17.18,2.25,37.35-11.62,49.74-14.51-6.8-31.64.84-35.48,16.73-4,16.53,10.05,32.08,26.84,30.54,17.74-1.62,27.61-20.97,19.59-36.35l9.19-9.19ZM675.61-69.19c-.59.03-2.59,9.2-2.85,10.4-4.16,19.43-5.41,39.62-5.11,59.43,22.23,1.21,44.54-1.42,66.18-6.48.44-.22.48-.61,0-.8-.88-.35-4.27-.56-5.68-.92-29.46-7.47-49.47-31.64-52.55-61.63Z"/>
      </g>
      <g>
        <path class="cls-5" d="M675.25,882.4c5.82-6.61,12.76-13.07,19.83-18.28,36.16-26.65,83.55-29.23,126.66-26.58,2.43,40.12.78,84.66-22,119.44-8.88,13.55-21.51,26.37-34.95,35.41-34.6,23.27-80.73,25.83-120.98,22.69-2.37-45.14-.15-96.83,31.44-132.68ZM764.66,906.32c11.39,17.84,6.54,41.73-11.75,53-22.23,13.68-52.32-.58-56.41-26.38-3.54-22.31,13.56-43.13,36.42-43.24,1.98,0,5.55.95,7.02.81s3.12-3.98,3.79-5.39c.85-1.79,4.23-11.31,2.7-12.6-33.4-9.21-67.59,16.08-69.46,50.7-3.1,57.43,71.84,83.41,103.93,34.58,15.8-24.04,9.8-57.23-12.74-74.97l8.38-8.38c12.66,11.2,22.02,26.23,24.18,43.09l.53-.27c5.07-21.32,6.84-43.26,6.52-65.12l-.55-.82c-17.08-.19-34.24.38-51.08,3.52,6.03,17.18,2.25,37.35-11.62,49.74-14.51-6.8-31.64.84-35.48,16.73-4,16.53,10.05,32.08,26.84,30.54,17.74-1.62,27.61-20.97,19.59-36.35l9.19-9.19ZM665.24,931.71c-.59.03-2.59,9.2-2.85,10.4-4.16,19.43-5.41,39.62-5.11,59.43,22.23,1.21,44.54-1.42,66.18-6.48.44-.22.48-.61,0-.8-.88-.35-4.27-.56-5.68-.92-29.46-7.47-49.47-31.64-52.55-61.63Z"/>
        <path class="cls-5" d="M852.99,704.67c5.82-6.61,12.76-13.07,19.83-18.28,36.16-26.65,83.55-29.23,126.66-26.58,2.43,40.12.78,84.66-22,119.44-8.88,13.55-21.51,26.37-34.95,35.41-34.6,23.27-80.73,25.83-120.98,22.69-2.37-45.14-.15-96.83,31.44-132.68ZM942.4,728.58c11.39,17.84,6.54,41.73-11.75,53-22.23,13.68-52.32-.58-56.41-26.38-3.54-22.31,13.56-43.13,36.42-43.24,1.98,0,5.55.95,7.02.81s3.12-3.98,3.79-5.39c.85-1.79,4.23-11.31,2.7-12.6-33.4-9.21-67.59,16.08-69.46,50.7-3.1,57.43,71.84,83.41,103.93,34.58,15.8-24.04,9.8-57.23-12.74-74.97l8.38-8.38c12.66,11.2,22.02,26.23,24.18,43.09l.53-.27c5.07-21.32,6.84-43.26,6.52-65.12l-.55-.82c-17.08-.19-34.24.38-51.08,3.52,6.03,17.18,2.25,37.35-11.62,49.74-14.51-6.8-31.64.84-35.48,16.73-4,16.53,10.05,32.08,26.84,30.54,17.74-1.62,27.61-20.97,19.59-36.35l9.19-9.19ZM842.97,753.98c-.59.03-2.59,9.2-2.85,10.4-4.16,19.43-5.41,39.62-5.11,59.43,22.23,1.21,44.54-1.42,66.18-6.48.44-.22.48-.61,0-.8-.88-.35-4.27-.56-5.68-.92-29.46-7.47-49.47-31.64-52.55-61.63Z"/>
        <path class="cls-5" d="M1030.73,526.93c5.82-6.61,12.76-13.07,19.83-18.28,36.16-26.65,83.55-29.23,126.66-26.58,2.43,40.12.78,84.66-22,119.44-8.88,13.55-21.51,26.37-34.95,35.41-34.6,23.27-80.73,25.83-120.98,22.69-2.37-45.14-.15-96.83,31.44-132.68ZM1120.14,550.84c11.39,17.84,6.54,41.73-11.75,53-22.23,13.68-52.32-.58-56.41-26.38-3.54-22.31,13.56-43.13,36.42-43.24,1.98,0,5.55.95,7.02.81s3.12-3.98,3.79-5.39c.85-1.79,4.23-11.31,2.7-12.6-33.4-9.21-67.59,16.08-69.46,50.7-3.1,57.43,71.84,83.41,103.93,34.58,15.8-24.04,9.8-57.23-12.74-74.97l8.38-8.38c12.66,11.2,22.02,26.23,24.18,43.09l.53-.27c5.07-21.32,6.84-43.26,6.52-65.12l-.55-.82c-17.08-.19-34.24.38-51.08,3.52,6.03,17.18,2.25,37.35-11.62,49.74-14.51-6.8-31.64.84-35.48,16.73-4,16.53,10.05,32.08,26.84,30.54,17.74-1.62,27.61-20.97,19.59-36.35l9.19-9.19ZM1020.71,576.24c-.59.03-2.59,9.2-2.85,10.4-4.16,19.43-5.41,39.62-5.11,59.43,22.23,1.21,44.54-1.42,66.18-6.48.44-.22.48-.61,0-.8-.88-.35-4.27-.56-5.68-.92-29.46-7.47-49.47-31.64-52.55-61.63Z"/>
      </g>
      <g>
        <path class="cls-5" d="M229.66,813.07c5.82-6.61,12.76-13.07,19.83-18.28,36.16-26.65,83.55-29.23,126.66-26.58,2.43,40.12.78,84.66-22,119.44-8.88,13.55-21.51,26.37-34.95,35.41-34.6,23.27-80.73,25.83-120.98,22.69-2.37-45.14-.15-96.83,31.44-132.68ZM319.07,836.98c11.39,17.84,6.54,41.73-11.75,53-22.23,13.68-52.32-.58-56.41-26.38-3.54-22.31,13.56-43.13,36.42-43.24,1.98,0,5.55.95,7.02.81s3.12-3.98,3.79-5.39c.85-1.79,4.23-11.31,2.7-12.6-33.4-9.21-67.59,16.08-69.46,50.7-3.1,57.43,71.84,83.41,103.93,34.58,15.8-24.04,9.8-57.23-12.74-74.97l8.38-8.38c12.66,11.2,22.02,26.23,24.18,43.09l.53-.27c5.07-21.32,6.84-43.26,6.52-65.12l-.55-.82c-17.08-.19-34.24.38-51.08,3.52,6.03,17.18,2.25,37.35-11.62,49.74-14.51-6.8-31.64.84-35.48,16.73-4,16.53,10.05,32.08,26.84,30.54,17.74-1.62,27.61-20.97,19.59-36.35l9.19-9.19ZM219.64,862.38c-.59.03-2.59,9.2-2.85,10.4-4.16,19.43-5.41,39.62-5.11,59.43,22.23,1.21,44.54-1.42,66.18-6.48.44-.22.48-.61,0-.8-.88-.35-4.27-.56-5.68-.92-29.46-7.47-49.47-31.64-52.55-61.63Z"/>
        <path class="cls-5" d="M407.4,635.33c5.82-6.61,12.76-13.07,19.83-18.28,36.16-26.65,83.55-29.23,126.66-26.58,2.43,40.12.78,84.66-22,119.44-8.88,13.55-21.51,26.37-34.95,35.41-34.6,23.27-80.73,25.83-120.98,22.69-2.37-45.14-.15-96.83,31.44-132.68ZM496.8,659.25c11.39,17.84,6.54,41.73-11.75,53-22.23,13.68-52.32-.58-56.41-26.38-3.54-22.31,13.56-43.13,36.42-43.24,1.98,0,5.55.95,7.02.81s3.12-3.98,3.79-5.39c.85-1.79,4.23-11.31,2.7-12.6-33.4-9.21-67.59,16.08-69.46,50.7-3.1,57.43,71.84,83.41,103.93,34.58,15.8-24.04,9.8-57.23-12.74-74.97l8.38-8.38c12.66,11.2,22.02,26.23,24.18,43.09l.53-.27c5.07-21.32,6.84-43.26,6.52-65.12l-.55-.82c-17.08-.19-34.24.38-51.08,3.52,6.03,17.18,2.25,37.35-11.62,49.74-14.51-6.8-31.64.84-35.48,16.73-4,16.53,10.05,32.08,26.84,30.54,17.74-1.62,27.61-20.97,19.59-36.35l9.19-9.19ZM397.38,684.64c-.59.03-2.59,9.2-2.85,10.4-4.16,19.43-5.41,39.62-5.11,59.43,22.23,1.21,44.54-1.42,66.18-6.48.44-.22.48-.61,0-.8-.88-.35-4.27-.56-5.68-.92-29.46-7.47-49.47-31.64-52.55-61.63Z"/>
        <path class="cls-5" d="M585.14,457.6c5.82-6.61,12.76-13.07,19.83-18.28,36.16-26.65,83.55-29.23,126.66-26.58,2.43,40.12.78,84.66-22,119.44-8.88,13.55-21.51,26.37-34.95,35.41-34.6,23.27-80.73,25.83-120.98,22.69-2.37-45.14-.15-96.83,31.44-132.68ZM674.54,481.51c11.39,17.84,6.54,41.73-11.75,53-22.23,13.68-52.32-.58-56.41-26.38-3.54-22.31,13.56-43.13,36.42-43.24,1.98,0,5.55.95,7.02.81s3.12-3.98,3.79-5.39c.85-1.79,4.23-11.31,2.7-12.6-33.4-9.21-67.59,16.08-69.46,50.7-3.1,57.43,71.84,83.41,103.93,34.58,15.8-24.04,9.8-57.23-12.74-74.97l8.38-8.38c12.66,11.2,22.02,26.23,24.18,43.09l.53-.27c5.07-21.32,6.84-43.26,6.52-65.12l-.55-.82c-17.08-.19-34.24.38-51.08,3.52,6.03,17.18,2.25,37.35-11.62,49.74-14.51-6.8-31.64.84-35.48,16.73-4,16.53,10.05,32.08,26.84,30.54,17.74-1.62,27.61-20.97,19.59-36.35l9.19-9.19ZM575.12,506.91c-.59.03-2.59,9.2-2.85,10.4-4.16,19.43-5.41,39.62-5.11,59.43,22.23,1.21,44.54-1.42,66.18-6.48.44-.22.48-.61,0-.8-.88-.35-4.27-.56-5.68-.92-29.46-7.47-49.47-31.64-52.55-61.63Z"/>
        <path class="cls-5" d="M762.88,279.86c5.82-6.61,12.76-13.07,19.83-18.28,36.16-26.65,83.55-29.23,126.66-26.58,2.43,40.12.78,84.66-22,119.44-8.88,13.55-21.51,26.37-34.95,35.41-34.6,23.27-80.73,25.83-120.98,22.69-2.37-45.14-.15-96.83,31.44-132.68ZM852.28,303.77c11.39,17.84,6.54,41.73-11.75,53-22.23,13.68-52.32-.58-56.41-26.38-3.54-22.31,13.56-43.13,36.42-43.24,1.98,0,5.55.95,7.02.81s3.12-3.98,3.79-5.39c.85-1.79,4.23-11.31,2.7-12.6-33.4-9.21-67.59,16.08-69.46,50.7-3.1,57.43,71.84,83.41,103.93,34.58,15.8-24.04,9.8-57.23-12.74-74.97l8.38-8.38c12.66,11.2,22.02,26.23,24.18,43.09l.53-.27c5.07-21.32,6.84-43.26,6.52-65.12l-.55-.82c-17.08-.19-34.24.38-51.08,3.52,6.03,17.18,2.25,37.35-11.62,49.74-14.51-6.8-31.64.84-35.48,16.73-4,16.53,10.05,32.08,26.84,30.54,17.74-1.62,27.61-20.97,19.59-36.35l9.19-9.19ZM752.86,329.17c-.59.03-2.59,9.2-2.85,10.4-4.16,19.43-5.41,39.62-5.11,59.43,22.23,1.21,44.54-1.42,66.18-6.48.44-.22.48-.61,0-.8-.88-.35-4.27-.56-5.68-.92-29.46-7.47-49.47-31.64-52.55-61.63Z"/>
        <path class="cls-5" d="M942.33,100.42c5.82-6.61,12.76-13.07,19.83-18.28,36.16-26.65,83.55-29.23,126.66-26.58,2.43,40.12.78,84.66-22,119.44-8.88,13.55-21.51,26.37-34.95,35.41-34.6,23.27-80.73,25.83-120.98,22.69-2.37-45.14-.15-96.83,31.44-132.68ZM1031.74,124.33c11.39,17.84,6.54,41.73-11.75,53-22.23,13.68-52.32-.58-56.41-26.38-3.54-22.31,13.56-43.13,36.42-43.24,1.98,0,5.55.95,7.02.81s3.12-3.98,3.79-5.39c.85-1.79,4.23-11.31,2.7-12.6-33.4-9.21-67.59,16.08-69.46,50.7-3.1,57.43,71.84,83.41,103.93,34.58,15.8-24.04,9.8-57.23-12.74-74.97l8.38-8.38c12.66,11.2,22.02,26.23,24.18,43.09l.53-.27c5.07-21.32,6.84-43.26,6.52-65.12l-.55-.82c-17.08-.19-34.24.38-51.08,3.52,6.03,17.18,2.25,37.35-11.62,49.74-14.51-6.8-31.64.84-35.48,16.73-4,16.53,10.05,32.08,26.84,30.54,17.74-1.62,27.61-20.97,19.59-36.35l9.19-9.19ZM932.32,149.73c-.59.03-2.59,9.2-2.85,10.4-4.16,19.43-5.41,39.62-5.11,59.43,22.23,1.21,44.54-1.42,66.18-6.48.44-.22.48-.61,0-.8-.88-.35-4.27-.56-5.68-.92-29.46-7.47-49.47-31.64-52.55-61.63Z"/>
      </g>
      <g>
        <path class="cls-5" d="M836.6,173.38c-5.82,6.61-12.76,13.07-19.83,18.28-36.16,26.65-83.55,29.23-126.66,26.58-2.43-40.12-.78-84.66,22-119.44,8.88-13.55,21.51-26.37,34.95-35.41,34.6-23.27,80.73-25.83,120.98-22.69,2.37,45.14.15,96.83-31.44,132.68ZM747.19,149.47c-11.39-17.84-6.54-41.73,11.75-53,22.23-13.68,52.32.58,56.41,26.38,3.54,22.31-13.56,43.13-36.42,43.24-1.98,0-5.55-.95-7.02-.81s-3.12,3.98-3.79,5.39c-.85,1.79-4.23,11.31-2.7,12.6,33.4,9.21,67.59-16.08,69.46-50.7,3.1-57.43-71.84-83.41-103.93-34.58-15.8,24.04-9.8,57.23,12.74,74.97l-8.38,8.38c-12.66-11.2-22.02-26.23-24.18-43.09l-.53.27c-5.07,21.32-6.84,43.26-6.52,65.12l.55.82c17.08.19,34.24-.38,51.08-3.52-6.03-17.18-2.25-37.35,11.62-49.74,14.51,6.8,31.64-.84,35.48-16.73,4-16.53-10.05-32.08-26.84-30.54-17.74,1.62-27.61,20.97-19.59,36.35l-9.19,9.19ZM846.61,124.07c.59-.03,2.59-9.2,2.85-10.4,4.16-19.43,5.41-39.62,5.11-59.43-22.23-1.21-44.54,1.42-66.18,6.48-.44.22-.48.61,0,.8.88.35,4.27.56,5.68.92,29.46,7.47,49.47,31.64,52.55,61.63Z"/>
        <path class="cls-5" d="M658.86,351.12c-5.82,6.61-12.76,13.07-19.83,18.28-36.16,26.65-83.55,29.23-126.66,26.58-2.43-40.12-.78-84.66,22-119.44,8.88-13.55,21.51-26.37,34.95-35.41,34.6-23.27,80.73-25.83,120.98-22.69,2.37,45.14.15,96.83-31.44,132.68ZM569.45,327.21c-11.39-17.84-6.54-41.73,11.75-53,22.23-13.68,52.32.58,56.41,26.38,3.54,22.31-13.56,43.13-36.42,43.24-1.98,0-5.55-.95-7.02-.81s-3.12,3.98-3.79,5.39c-.85,1.79-4.23,11.31-2.7,12.6,33.4,9.21,67.59-16.08,69.46-50.7,3.1-57.43-71.84-83.41-103.93-34.58-15.8,24.04-9.8,57.23,12.74,74.97l-8.38,8.38c-12.66-11.2-22.02-26.23-24.18-43.09l-.53.27c-5.07,21.32-6.84,43.26-6.52,65.12l.55.82c17.08.19,34.24-.38,51.08-3.52-6.03-17.18-2.25-37.35,11.62-49.74,14.51,6.8,31.64-.84,35.48-16.73,4-16.53-10.05-32.08-26.84-30.54-17.74,1.62-27.61,20.97-19.59,36.35l-9.19,9.19ZM668.88,301.81c.59-.03,2.59-9.2,2.85-10.4,4.16-19.43,5.41-39.62,5.11-59.43-22.23-1.21-44.54,1.42-66.18,6.48-.44.22-.48.61,0,.8.88.35,4.27.56,5.68.92,29.46,7.47,49.47,31.64,52.55,61.63Z"/>
        <path class="cls-5" d="M481.12,528.86c-5.82,6.61-12.76,13.07-19.83,18.28-36.16,26.65-83.55,29.23-126.66,26.58-2.43-40.12-.78-84.66,22-119.44,8.88-13.55,21.51-26.37,34.95-35.41,34.6-23.27,80.73-25.83,120.98-22.69,2.37,45.14.15,96.83-31.44,132.68ZM391.71,504.95c-11.39-17.84-6.54-41.73,11.75-53,22.23-13.68,52.32.58,56.41,26.38,3.54,22.31-13.56,43.13-36.42,43.24-1.98,0-5.55-.95-7.02-.81s-3.12,3.98-3.79,5.39c-.85,1.79-4.23,11.31-2.7,12.6,33.4,9.21,67.59-16.08,69.46-50.7,3.1-57.43-71.84-83.41-103.93-34.58-15.8,24.04-9.8,57.23,12.74,74.97l-8.38,8.38c-12.66-11.2-22.02-26.23-24.18-43.09l-.53.27c-5.07,21.32-6.84,43.26-6.52,65.12l.55.82c17.08.19,34.24-.38,51.08-3.52-6.03-17.18-2.25-37.35,11.62-49.74,14.51,6.8,31.64-.84,35.48-16.73,4-16.53-10.05-32.08-26.84-30.54-17.74,1.62-27.61,20.97-19.59,36.35l-9.19,9.19ZM491.14,479.55c.59-.03,2.59-9.2,2.85-10.4,4.16-19.43,5.41-39.62,5.11-59.43-22.23-1.21-44.54,1.42-66.18,6.48-.44.22-.48.61,0,.8.88.35,4.27.56,5.68.92,29.46,7.47,49.47,31.64,52.55,61.63Z"/>
        <path class="cls-5" d="M303.38,706.6c-5.82,6.61-12.76,13.07-19.83,18.28-36.16,26.65-83.55,29.23-126.66,26.58-2.43-40.12-.78-84.66,22-119.44,8.88-13.55,21.51-26.37,34.95-35.41,34.6-23.27,80.73-25.83,120.98-22.69,2.37,45.14.15,96.83-31.44,132.68ZM213.98,682.69c-11.39-17.84-6.54-41.73,11.75-53,22.23-13.68,52.32.58,56.41,26.38,3.54,22.31-13.56,43.13-36.42,43.24-1.98,0-5.55-.95-7.02-.81s-3.12,3.98-3.79,5.39c-.85,1.79-4.23,11.31-2.7,12.6,33.4,9.21,67.59-16.08,69.46-50.7,3.1-57.43-71.84-83.41-103.93-34.58-15.8,24.04-9.8,57.23,12.74,74.97l-8.38,8.38c-12.66-11.2-22.02-26.23-24.18-43.09l-.53.27c-5.07,21.32-6.84,43.26-6.52,65.12l.55.82c17.08.19,34.24-.38,51.08-3.52-6.03-17.18-2.25-37.35,11.62-49.74,14.51,6.8,31.64-.84,35.48-16.73,4-16.53-10.05-32.08-26.84-30.54-17.74,1.62-27.61,20.97-19.59,36.35l-9.19,9.19ZM313.4,657.29c.59-.03,2.59-9.2,2.85-10.4,4.16-19.43,5.41-39.62,5.11-59.43-22.23-1.21-44.54,1.42-66.18,6.48-.44.22-.48.61,0,.8.88.35,4.27.56,5.68.92,29.46,7.47,49.47,31.64,52.55,61.63Z"/>
        <path class="cls-5" d="M123.92,886.04c-5.82,6.61-12.76,13.07-19.83,18.28-36.16,26.65-83.55,29.23-126.66,26.58-2.43-40.12-.78-84.66,22-119.44,8.88-13.55,21.51-26.37,34.95-35.41,34.6-23.27,80.73-25.83,120.98-22.69,2.37,45.14.15,96.83-31.44,132.68ZM34.52,862.13c-11.39-17.84-6.54-41.73,11.75-53,22.23-13.68,52.32.58,56.41,26.38,3.54,22.31-13.56,43.13-36.42,43.24-1.98,0-5.55-.95-7.02-.81s-3.12,3.98-3.79,5.39c-.85,1.79-4.23,11.31-2.7,12.6,33.4,9.21,67.59-16.08,69.46-50.7,3.1-57.43-71.84-83.41-103.93-34.58-15.8,24.04-9.8,57.23,12.74,74.97l-8.38,8.38c-12.66-11.2-22.02-26.23-24.18-43.09l-.53.27c-5.07,21.32-6.84,43.26-6.52,65.12l.55.82c17.08.19,34.24-.38,51.08-3.52-6.03-17.18-2.25-37.35,11.62-49.74,14.51,6.8,31.64-.84,35.48-16.73,4-16.53-10.05-32.08-26.84-30.54-17.74,1.62-27.61,20.97-19.59,36.35l-9.19,9.19ZM133.94,836.73c.59-.03,2.59-9.2,2.85-10.4,4.16-19.43,5.41-39.62,5.11-59.43-22.23-1.21-44.54,1.42-66.18,6.48-.44.22-.48.61,0,.8.88.35,4.27.56,5.68.92,29.46,7.47,49.47,31.64,52.55,61.63Z"/>
      </g>
      <g>
        <path class="cls-5" d="M1090.81,407.42c-5.82,6.61-12.76,13.07-19.83,18.28-36.16,26.65-83.55,29.23-126.66,26.58-2.43-40.12-.78-84.66,22-119.44,8.88-13.55,21.51-26.37,34.95-35.41,34.6-23.27,80.73-25.83,120.98-22.69,2.37,45.14.15,96.83-31.44,132.68ZM1001.41,383.51c-11.39-17.84-6.54-41.73,11.75-53,22.23-13.68,52.32.58,56.41,26.38,3.54,22.31-13.56,43.13-36.42,43.24-1.98,0-5.55-.95-7.02-.81s-3.12,3.98-3.79,5.39c-.85,1.79-4.23,11.31-2.7,12.6,33.4,9.21,67.59-16.08,69.46-50.7,3.1-57.43-71.84-83.41-103.93-34.58-15.8,24.04-9.8,57.23,12.74,74.97l-8.38,8.38c-12.66-11.2-22.02-26.23-24.18-43.09l-.53.27c-5.07,21.32-6.84,43.26-6.52,65.12l.55.82c17.08.19,34.24-.38,51.08-3.52-6.03-17.18-2.25-37.35,11.62-49.74,14.51,6.8,31.64-.84,35.48-16.73,4-16.53-10.05-32.08-26.84-30.54-17.74,1.62-27.61,20.97-19.59,36.35l-9.19,9.19ZM1100.83,358.11c.59-.03,2.59-9.2,2.85-10.4,4.16-19.43,5.41-39.62,5.11-59.43-22.23-1.21-44.54,1.42-66.18,6.48-.44.22-.48.61,0,.8.88.35,4.27.56,5.68.92,29.46,7.47,49.47,31.64,52.55,61.63Z"/>
        <path class="cls-5" d="M913.07,585.16c-5.82,6.61-12.76,13.07-19.83,18.28-36.16,26.65-83.55,29.23-126.66,26.58-2.43-40.12-.78-84.66,22-119.44,8.88-13.55,21.51-26.37,34.95-35.41,34.6-23.27,80.73-25.83,120.98-22.69,2.37,45.14.15,96.83-31.44,132.68ZM823.67,561.25c-11.39-17.84-6.54-41.73,11.75-53,22.23-13.68,52.32.58,56.41,26.38,3.54,22.31-13.56,43.13-36.42,43.24-1.98,0-5.55-.95-7.02-.81s-3.12,3.98-3.79,5.39c-.85,1.79-4.23,11.31-2.7,12.6,33.4,9.21,67.59-16.08,69.46-50.7,3.1-57.43-71.84-83.41-103.93-34.58-15.8,24.04-9.8,57.23,12.74,74.97l-8.38,8.38c-12.66-11.2-22.02-26.23-24.18-43.09l-.53.27c-5.07,21.32-6.84,43.26-6.52,65.12l.55.82c17.08.19,34.24-.38,51.08-3.52-6.03-17.18-2.25-37.35,11.62-49.74,14.51,6.8,31.64-.84,35.48-16.73s-10.05-32.08-26.84-30.54c-17.74,1.62-27.61,20.97-19.59,36.35l-9.19,9.19ZM923.09,535.85c.59-.03,2.59-9.2,2.85-10.4,4.16-19.43,5.41-39.62,5.11-59.43-22.23-1.21-44.54,1.42-66.18,6.48-.44.22-.48.61,0,.8.88.35,4.27.56,5.68.92,29.46,7.47,49.47,31.64,52.55,61.63Z"/>
        <path class="cls-5" d="M735.34,762.89c-5.82,6.61-12.76,13.07-19.83,18.28-36.16,26.65-83.55,29.23-126.66,26.58-2.43-40.12-.78-84.66,22-119.44,8.88-13.55,21.51-26.37,34.95-35.41,34.6-23.27,80.73-25.83,120.98-22.69,2.37,45.14.15,96.83-31.44,132.68ZM645.93,738.98c-11.39-17.84-6.54-41.73,11.75-53,22.23-13.68,52.32.58,56.41,26.38,3.54,22.31-13.56,43.13-36.42,43.24-1.98,0-5.55-.95-7.02-.81s-3.12,3.98-3.79,5.39c-.85,1.79-4.23,11.31-2.7,12.6,33.4,9.21,67.59-16.08,69.46-50.7,3.1-57.43-71.84-83.41-103.93-34.58-15.8,24.04-9.8,57.23,12.74,74.97l-8.38,8.38c-12.66-11.2-22.02-26.23-24.18-43.09l-.53.27c-5.07,21.32-6.84,43.26-6.52,65.12l.55.82c17.08.19,34.24-.38,51.08-3.52-6.03-17.18-2.25-37.35,11.62-49.74,14.51,6.8,31.64-.84,35.48-16.73s-10.05-32.08-26.84-30.54c-17.74,1.62-27.61,20.97-19.59,36.35l-9.19,9.19ZM745.35,713.58c.59-.03,2.59-9.2,2.85-10.4,4.16-19.43,5.41-39.62,5.11-59.43-22.23-1.21-44.54,1.42-66.18,6.48-.44.22-.48.61,0,.8.88.35,4.27.56,5.68.92,29.46,7.47,49.47,31.64,52.55,61.63Z"/>
        <path class="cls-5" d="M557.6,940.63c-5.82,6.61-12.76,13.07-19.83,18.28-36.16,26.65-83.55,29.23-126.66,26.58-2.43-40.12-.78-84.66,22-119.44,8.88-13.55,21.51-26.37,34.95-35.41,34.6-23.27,80.73-25.83,120.98-22.69,2.37,45.14.15,96.83-31.44,132.68ZM468.19,916.72c-11.39-17.84-6.54-41.73,11.75-53,22.23-13.68,52.32.58,56.41,26.38,3.54,22.31-13.56,43.13-36.42,43.24-1.98,0-5.55-.95-7.02-.81s-3.12,3.98-3.79,5.39c-.85,1.79-4.23,11.31-2.7,12.6,33.4,9.21,67.59-16.08,69.46-50.7,3.1-57.43-71.84-83.41-103.93-34.58-15.8,24.04-9.8,57.23,12.74,74.97l-8.38,8.38c-12.66-11.2-22.02-26.23-24.18-43.09l-.53.27c-5.07,21.32-6.84,43.26-6.52,65.12l.55.82c17.08.19,34.24-.38,51.08-3.52-6.03-17.18-2.25-37.35,11.62-49.74,14.51,6.8,31.64-.84,35.48-16.73,4-16.53-10.05-32.08-26.84-30.54-17.74,1.62-27.61,20.97-19.59,36.35l-9.19,9.19ZM567.62,891.32c.59-.03,2.59-9.2,2.85-10.4,4.16-19.43,5.41-39.62,5.11-59.43-22.23-1.21-44.54,1.42-66.18,6.48-.44.22-.48.61,0,.8.88.35,4.27.56,5.68.92,29.46,7.47,49.47,31.64,52.55,61.63Z"/>
        <path class="cls-5" d="M378.14,1120.07c-5.82,6.61-12.76,13.07-19.83,18.28-36.16,26.65-83.55,29.23-126.66,26.58-2.43-40.12-.78-84.66,22-119.44,8.88-13.55,21.51-26.37,34.95-35.41,34.6-23.27,80.73-25.83,120.98-22.69,2.37,45.14.15,96.83-31.44,132.68ZM288.73,1096.16c-11.39-17.84-6.54-41.73,11.75-53,22.23-13.68,52.32.58,56.41,26.38,3.54,22.31-13.56,43.13-36.42,43.24-1.98,0-5.55-.95-7.02-.81s-3.12,3.98-3.79,5.39c-.85,1.79-4.23,11.31-2.7,12.6,33.4,9.21,67.59-16.08,69.46-50.7,3.1-57.43-71.84-83.41-103.93-34.58-15.8,24.04-9.8,57.23,12.74,74.97l-8.38,8.38c-12.66-11.2-22.02-26.23-24.18-43.09l-.53.27c-5.07,21.32-6.84,43.26-6.52,65.12l.55.82c17.08.19,34.24-.38,51.08-3.52-6.03-17.18-2.25-37.35,11.62-49.74,14.51,6.8,31.64-.84,35.48-16.73,4-16.53-10.05-32.08-26.84-30.54-17.74,1.62-27.61,20.97-19.59,36.35l-9.19,9.19ZM388.16,1070.76c.59-.03,2.59-9.2,2.85-10.4,4.16-19.43,5.41-39.62,5.11-59.43-22.23-1.21-44.54,1.42-66.18,6.48-.44.22-.48.61,0,.8.88.35,4.27.56,5.68.92,29.46,7.47,49.47,31.64,52.55,61.63Z"/>
      </g>
      <path class="cls-5" d="M1016.05-4.13c-5.82,6.61-12.76,13.07-19.83,18.28-36.16,26.65-83.55,29.23-126.66,26.58-2.43-40.12-.78-84.66,22-119.44,8.88-13.55,21.51-26.37,34.95-35.41,34.6-23.27,80.73-25.83,120.98-22.69,2.37,45.14.15,96.83-31.44,132.68ZM926.65-28.04c-11.39-17.84-6.54-41.73,11.75-53,22.23-13.68,52.32.58,56.41,26.38,3.54,22.31-13.56,43.13-36.42,43.24-1.98,0-5.55-.95-7.02-.81s-3.12,3.98-3.79,5.39c-.85,1.79-4.23,11.31-2.7,12.6,33.4,9.21,67.59-16.08,69.46-50.7,3.1-57.43-71.84-83.41-103.93-34.58-15.8,24.04-9.8,57.23,12.74,74.97l-8.38,8.38c-12.66-11.2-22.02-26.23-24.18-43.09l-.53.27c-5.07,21.32-6.84,43.26-6.52,65.12l.55.82c17.08.19,34.24-.38,51.08-3.52-6.03-17.18-2.25-37.35,11.62-49.74,14.51,6.8,31.64-.84,35.48-16.73,4-16.53-10.05-32.08-26.84-30.54-17.74,1.62-27.61,20.97-19.59,36.35l-9.19,9.19ZM1026.07-53.44c.59-.03,2.59-9.2,2.85-10.4,4.16-19.43,5.41-39.62,5.11-59.43-22.23-1.21-44.54,1.42-66.18,6.48-.44.22-.48.61,0,.8.88.35,4.27.56,5.68.92,29.46,7.47,49.47,31.64,52.55,61.63Z"/>
    </g>
  </g>
  <g class="cls-6">
    <g>
      <path class="cls-3" d="M-49.78,526.93c5.82-6.61,12.76-13.07,19.83-18.28,36.16-26.65,83.55-29.23,126.66-26.58,2.43,40.12.78,84.66-22,119.44-8.88,13.55-21.51,26.37-34.95,35.41-34.6,23.27-80.73,25.83-120.98,22.69-2.37-45.14-.15-96.83,31.44-132.68ZM39.63,550.84c11.39,17.84,6.54,41.73-11.75,53-22.23,13.68-52.32-.58-56.41-26.38-3.54-22.31,13.56-43.13,36.42-43.24,1.98,0,5.55.95,7.02.81s3.12-3.98,3.79-5.39c.85-1.79,4.23-11.31,2.7-12.6-33.4-9.21-67.59,16.08-69.46,50.7-3.1,57.43,71.84,83.41,103.93,34.58,15.8-24.04,9.8-57.23-12.74-74.97l8.38-8.38c12.66,11.2,22.02,26.23,24.18,43.09l.53-.27c5.07-21.32,6.84-43.26,6.52-65.12l-.55-.82c-17.08-.19-34.24.38-51.08,3.52,6.03,17.18,2.25,37.35-11.62,49.74-14.51-6.8-31.64.84-35.48,16.73-4,16.53,10.05,32.08,26.84,30.54,17.74-1.62,27.61-20.97,19.59-36.35l9.19-9.19ZM-59.8,576.24c-.59.03-2.59,9.2-2.85,10.4-4.16,19.43-5.41,39.62-5.11,59.43,22.23,1.21,44.54-1.42,66.18-6.48.44-.22.48-.61,0-.8-.88-.35-4.27-.56-5.68-.92-29.46-7.47-49.47-31.64-52.55-61.63Z"/>
      <path class="cls-3" d="M129.68,347.49c5.82-6.61,12.76-13.07,19.83-18.28,36.16-26.65,83.55-29.23,126.66-26.58,2.43,40.12.78,84.66-22,119.44-8.88,13.55-21.51,26.37-34.95,35.41-34.6,23.27-80.73,25.83-120.98,22.69-2.37-45.14-.15-96.83,31.44-132.68ZM219.08,371.4c11.39,17.84,6.54,41.73-11.75,53-22.23,13.68-52.32-.58-56.41-26.38-3.54-22.31,13.56-43.13,36.42-43.24,1.98,0,5.55.95,7.02.81,1.52-.14,3.12-3.98,3.79-5.39.85-1.79,4.23-11.31,2.7-12.6-33.4-9.21-67.59,16.08-69.46,50.7-3.1,57.43,71.84,83.41,103.93,34.58,15.8-24.04,9.8-57.23-12.74-74.97l8.38-8.38c12.66,11.2,22.02,26.23,24.18,43.09l.53-.27c5.07-21.32,6.84-43.26,6.52-65.12l-.55-.82c-17.08-.19-34.24.38-51.08,3.52,6.03,17.18,2.25,37.35-11.62,49.74-14.51-6.8-31.64.84-35.48,16.73-4,16.53,10.05,32.08,26.84,30.54,17.74-1.62,27.61-20.97,19.59-36.35l9.19-9.19ZM119.66,396.8c-.59.03-2.59,9.2-2.85,10.4-4.16,19.43-5.41,39.62-5.11,59.43,22.23,1.21,44.54-1.42,66.18-6.48.44-.22.48-.61,0-.8-.88-.35-4.27-.56-5.68-.92-29.46-7.47-49.47-31.64-52.55-61.63Z"/>
    </g>
    <path class="cls-3" d="M-138.18,100.42c5.82-6.61,12.76-13.07,19.83-18.28,36.16-26.65,83.55-29.23,126.66-26.58,2.43,40.12.78,84.66-22,119.44-8.88,13.55-21.51,26.37-34.95,35.41-34.6,23.27-80.73,25.83-120.98,22.69-2.37-45.14-.15-96.83,31.44-132.68ZM-48.77,124.33c11.39,17.84,6.54,41.73-11.75,53-22.23,13.68-52.32-.58-56.41-26.38-3.54-22.31,13.56-43.13,36.42-43.24,1.98,0,5.55.95,7.02.81s3.12-3.98,3.79-5.39c.85-1.79,4.23-11.31,2.7-12.6-33.4-9.21-67.59,16.08-69.46,50.7-3.1,57.43,71.84,83.41,103.93,34.58,15.8-24.04,9.8-57.23-12.74-74.97l8.38-8.38c12.66,11.2,22.02,26.23,24.18,43.09l.53-.27c5.07-21.32,6.84-43.26,6.52-65.12l-.55-.82c-17.08-.19-34.24.38-51.08,3.52,6.03,17.18,2.25,37.35-11.62,49.74-14.51-6.8-31.64.84-35.48,16.73-4,16.53,10.05,32.08,26.84,30.54,17.74-1.62,27.61-20.97,19.59-36.35l9.19-9.19ZM-148.2,149.73c-.59.03-2.59,9.2-2.85,10.4-4.16,19.43-5.41,39.62-5.11,59.43,22.23,1.21,44.54-1.42,66.18-6.48.44-.22.48-.61,0-.8-.88-.35-4.27-.56-5.68-.92-29.46-7.47-49.47-31.64-52.55-61.63Z"/>
    <path class="cls-3" d="M10.3,407.42c-5.82,6.61-12.76,13.07-19.83,18.28-36.16,26.65-83.55,29.23-126.66,26.58-2.43-40.12-.78-84.66,22-119.44,8.88-13.55,21.51-26.37,34.95-35.41,34.6-23.27,80.73-25.83,120.98-22.69,2.37,45.14.15,96.83-31.44,132.68ZM-79.1,383.51c-11.39-17.84-6.54-41.73,11.75-53,22.23-13.68,52.32.58,56.41,26.38,3.54,22.31-13.56,43.13-36.42,43.24-1.98,0-5.55-.95-7.02-.81s-3.12,3.98-3.79,5.39c-.85,1.79-4.23,11.31-2.7,12.6,33.4,9.21,67.59-16.08,69.46-50.7,3.1-57.43-71.84-83.41-103.93-34.58-15.8,24.04-9.8,57.23,12.74,74.97l-8.38,8.38c-12.66-11.2-22.02-26.23-24.18-43.09l-.53.27c-5.07,21.32-6.84,43.26-6.52,65.12l.55.82c17.08.19,34.24-.38,51.08-3.52-6.03-17.18-2.25-37.35,11.62-49.74,14.51,6.8,31.64-.84,35.48-16.73,4-16.53-10.05-32.08-26.84-30.54-17.74,1.62-27.61,20.97-19.59,36.35l-9.19,9.19ZM20.32,358.11c.59-.03,2.59-9.2,2.85-10.4,4.16-19.43,5.41-39.62,5.11-59.43-22.23-1.21-44.54,1.42-66.18,6.48-.44.22-.48.61,0,.8.88.35,4.27.56,5.68.92,29.46,7.47,49.47,31.64,52.55,61.63Z"/>
  </g>
</svg>